<?xml version="1.0" standalone="no"?>
<!DOCTYPE svg PUBLIC "-//W3C//DTD SVG 20010904//EN"
 "http://www.w3.org/TR/2001/REC-SVG-20010904/DTD/svg10.dtd">
<svg version="1.0" xmlns="http://www.w3.org/2000/svg"
 width="135.000000pt" height="135.000000pt" viewBox="0 0 135.000000 135.000000"
 preserveAspectRatio="xMidYMid meet">
<metadata>
Created by potrace 1.13, written by Peter Selinger 2001-2015
</metadata>
<g transform="translate(0.000000,135.000000) scale(0.100000,-0.100000)"
fill="#000000" stroke="none">
<path d="M605 1264 c-238 -37 -432 -207 -501 -439 -24 -81 -24 -239 0 -320 61
-205 216 -360 421 -421 81 -24 239 -24 320 0 206 61 360 215 421 421 24 81 24
239 0 320 -60 203 -217 361 -416 419 -56 17 -193 28 -245 20z m-88 -296 c49
-46 16 -118 -54 -118 -49 0 -73 23 -73 71 0 28 6 42 22 53 32 23 78 20 105 -6z
m434 -191 c60 -39 73 -82 77 -249 l4 -148 -70 0 -70 0 -4 134 c-2 115 -6 137
-22 155 -23 25 -63 27 -94 5 -21 -14 -22 -22 -22 -155 l0 -140 -71 3 -71 3 -2
202 -1 203 74 0 73 0 -5 -26 -4 -25 26 24 c33 31 45 35 102 36 32 1 56 -6 80
-22z m-421 -192 l0 -205 -70 0 -70 0 0 205 0 205 70 0 70 0 0 -205z"/>
</g>
</svg>
